PERFORMER "Armin van Buuren"
TITLE "Essential Mix (2006-12-24)"
FILE "01-armin_van_buuren-essential_mix-sat-12-24-2006.mp3" MP3
  TRACK 01 AUDIO
    PERFORMER "Above & Beyond"
    TITLE "Good For Me (Intro Edit)"
    INDEX 01 00:00:00
  TRACK 02 AUDIO
    PERFORMER "Kirsty Hawkshaw Meets Tenishia"
    TITLE "Outsiders (Jose Amnesia Remix)"
    INDEX 01 01:01:00
  TRACK 03 AUDIO
    PERFORMER "Snow Patrol"
    TITLE "Chasing Cars (Topher Jones & Blake Jarrell Remix)"
    INDEX 01 05:18:00
  TRACK 04 AUDIO
    PERFORMER "Stephen J. Kroos"
    TITLE "4 Your Tape Recorder"
    INDEX 01 10:29:00
  TRACK 05 AUDIO
    PERFORMER "Carl B. Feat. Blue Foundation"
    TITLE "Sweep"
    INDEX 01 13:23:00
  TRACK 06 AUDIO
    PERFORMER "Markus Schulz Vs. Chakra"
    TITLE "I Am"
    INDEX 01 18:52:00
  TRACK 07 AUDIO
    PERFORMER "First State"
    TITLE "Evergreen"
    INDEX 01 24:50:00
  TRACK 08 AUDIO
    PERFORMER "Mike Foyle"
    TITLE "Firefly"
    INDEX 01 31:18:00
  TRACK 09 AUDIO
    PERFORMER "Nic Chagall"
    TITLE "WYN (NCS Hard Dub)"
    INDEX 01 38:19:00
  TRACK 10 AUDIO
    PERFORMER "Armin van Buuren"
    TITLE "Rush Hour"
    INDEX 01 42:17:00
  TRACK 11 AUDIO
    PERFORMER "Lange Vs Gareth Emery"
    TITLE "Another You, Another Me (Terranova & Austin Leeds Remix)"
    INDEX 01 49:11:00
  TRACK 12 AUDIO
    PERFORMER "Unknown Artist"
    TITLE "Perspective"
    INDEX 01 52:58:00
  TRACK 13 AUDIO
    PERFORMER "Kenidel Lopez"
    TITLE "Heavens Caliber"
    INDEX 01 59:39:00
  TRACK 14 AUDIO
    PERFORMER "Krivi"
    TITLE "Dreams (Libero Remix)"
    INDEX 01 64:59:00
  TRACK 15 AUDIO
    PERFORMER "D-Factor"
    TITLE "Mystique"
    INDEX 01 69:34:00
  TRACK 16 AUDIO
    PERFORMER "Armin Van Buuren Vs Rank 1 feat. Kush"
    TITLE "This World Is Watching Me (Cosmic Gate Remix)"
    INDEX 01 73:17:00
  TRACK 17 AUDIO
    PERFORMER "Arctic Quest"
    TITLE "Black Smoke"
    INDEX 01 80:19:00
  TRACK 18 AUDIO
    PERFORMER "Dave 202"
    TITLE "Torrent"
    INDEX 01 83:44:00
  TRACK 19 AUDIO
    PERFORMER "Orjan"
    TITLE "Gobstice"
    INDEX 01 89:47:00
  TRACK 20 AUDIO
    PERFORMER "Armin van Buuren"
    TITLE "Communication Part 3 (Coldware Remix)"
    INDEX 01 98:56:00
  TRACK 21 AUDIO
    PERFORMER "Joop"
    TITLE "The Future"
    INDEX 01 103:16:00
  TRACK 22 AUDIO
    PERFORMER "Aurosonic"
    TITLE "Freedom"
    INDEX 01 108:08:00
  TRACK 23 AUDIO
    PERFORMER "Good Living"
    TITLE "Feel So Good"
    INDEX 01 113:13:000